<svg width="25" height="25" viewBox="0 0 25 25" fill="none" xmlns="http://www.w3.org/2000/svg">
<path d="M20 7.75L19.375 18.382C19.3413 18.955 19.0899 19.4936 18.6722 19.8873C18.2545 20.281 17.702 20.5002 17.128 20.5H6.372C5.79796 20.5002 5.24555 20.281 4.82783 19.8873C4.41011 19.4936 4.15868 18.955 4.125 18.382L3.5 7.75M9.75 11.5H13.75M3.125 7.75H20.375C20.996 7.75 21.5 7.246 21.5 6.625V5.125C21.5 4.504 20.996 4 20.375 4H3.125C2.504 4 2 4.504 2 5.125V6.625C2 7.246 2.504 7.75 3.125 7.75Z" stroke="#D9D9D9" stroke-width="2" stroke-linecap="round" stroke-linejoin="round"/>
</svg>
