<svg width="74" height="23" viewBox="0 0 74 23" fill="none" xmlns="http://www.w3.org/2000/svg">
<path d="M20.1918 20.98C20.1918 21.53 20.0618 21.935 19.8018 22.195C19.5518 22.465 19.1618 22.6 18.6318 22.6C18.3118 22.6 18.0318 22.525 17.7918 22.375C17.5518 22.225 17.3318 22.055 17.1318 21.865C16.9418 21.675 16.7518 21.505 16.5618 21.355C16.3718 21.205 16.1618 21.13 15.9318 21.13C15.6918 21.13 15.4118 21.205 15.0918 21.355C14.7718 21.495 14.3968 21.665 13.9668 21.865C13.5368 22.055 13.0368 22.22 12.4668 22.36C11.8968 22.51 11.2418 22.585 10.5018 22.585C8.85184 22.585 7.37684 22.325 6.07684 21.805C4.78684 21.285 3.69184 20.54 2.79184 19.57C1.89184 18.6 1.20684 17.435 0.736836 16.075C0.266836 14.715 0.031836 13.19 0.031836 11.5C0.031836 9.93 0.311836 8.475 0.871836 7.135C1.44184 5.785 2.23184 4.605 3.24184 3.595C4.25184 2.585 5.42684 1.8 6.76684 1.24C8.10684 0.679999 9.55184 0.399999 11.1018 0.399999C12.1218 0.399999 12.9518 0.474999 13.5918 0.624999C14.2318 0.774999 14.7568 0.924999 15.1668 1.075C15.5768 1.225 15.9418 1.3 16.2618 1.3C16.5418 1.3 16.7818 1.23 16.9818 1.09C17.1918 0.949999 17.3918 0.809999 17.5818 0.669999C17.7818 0.529999 18.0018 0.459998 18.2418 0.459998C18.6618 0.459998 18.9518 0.574998 19.1118 0.804998C19.2818 1.035 19.4418 1.415 19.5918 1.945L20.9718 6.715C21.1018 7.165 21.0368 7.545 20.7768 7.855C20.5268 8.165 20.1718 8.36 19.7118 8.44C19.3318 8.5 18.9718 8.455 18.6318 8.305C18.3018 8.155 18.0168 7.84 17.7768 7.36C17.2568 6.31 16.6868 5.49 16.0668 4.9C15.4468 4.31 14.8018 3.9 14.1318 3.67C13.4618 3.43 12.7818 3.31 12.0918 3.31C11.0518 3.31 10.1518 3.6 9.39184 4.18C8.63184 4.76 8.04184 5.595 7.62184 6.685C7.21184 7.775 7.00684 9.09 7.00684 10.63C7.00684 12.38 7.26684 13.875 7.78684 15.115C8.30684 16.345 8.99184 17.29 9.84184 17.95C10.6918 18.61 11.6118 18.94 12.6018 18.94C12.8718 18.94 13.0968 18.915 13.2768 18.865C13.4668 18.815 13.6168 18.745 13.7268 18.655C13.8368 18.555 13.9168 18.43 13.9668 18.28C14.0168 18.13 14.0418 17.96 14.0418 17.77V15.385C14.0418 15.095 13.9768 14.89 13.8468 14.77C13.7168 14.65 13.5218 14.53 13.2618 14.41L12.7818 14.185C12.4018 14.005 12.0918 13.805 11.8518 13.585C11.6118 13.355 11.4918 13.045 11.4918 12.655C11.4918 12.205 11.6318 11.85 11.9118 11.59C12.1918 11.33 12.6268 11.2 13.2168 11.2H20.4918C21.0918 11.2 21.5268 11.33 21.7968 11.59C22.0768 11.85 22.2168 12.2 22.2168 12.64C22.2168 13 22.1318 13.295 21.9618 13.525C21.8018 13.755 21.5618 13.95 21.2418 14.11L20.9718 14.245C20.7618 14.345 20.5768 14.475 20.4168 14.635C20.2668 14.785 20.1918 15.035 20.1918 15.385V20.98ZM30.9895 13.345L38.9095 5.995C39.2495 5.675 39.4695 5.42 39.5695 5.23C39.6795 5.04 39.6945 4.88 39.6145 4.75C39.5445 4.62 39.3995 4.5 39.1795 4.39L38.6995 4.135C38.3595 3.955 38.1095 3.74 37.9495 3.49C37.7895 3.23 37.7095 2.91 37.7095 2.53C37.7095 2.06 37.8495 1.69 38.1295 1.42C38.4095 1.14 38.8445 0.999999 39.4345 0.999999H45.7345C46.3245 0.999999 46.7595 1.14 47.0395 1.42C47.3195 1.69 47.4595 2.06 47.4595 2.53C47.4595 2.93 47.3195 3.265 47.0395 3.535C46.7595 3.795 46.3545 4.05 45.8245 4.3C45.6545 4.38 45.4895 4.47 45.3295 4.57C45.1795 4.67 45.0145 4.795 44.8345 4.945C44.6645 5.085 44.4545 5.265 44.2045 5.485C43.9545 5.695 43.6445 5.965 43.2745 6.295L32.2195 16.135L30.9895 13.345ZM34.3945 11.56L39.5095 7.39L46.4245 17.635C46.6545 17.985 46.8645 18.225 47.0545 18.355C47.2545 18.475 47.4345 18.58 47.5945 18.67C47.9545 18.88 48.2095 19.14 48.3595 19.45C48.5095 19.76 48.5845 20.1 48.5845 20.47C48.5845 20.94 48.4445 21.315 48.1645 21.595C47.8845 21.865 47.4495 22 46.8595 22H38.9545C38.3645 22 37.9295 21.865 37.6495 21.595C37.3695 21.315 37.2295 20.94 37.2295 20.47C37.2295 20.08 37.3045 19.765 37.4545 19.525C37.6145 19.285 37.8145 19.085 38.0545 18.925L38.3245 18.745C38.5245 18.615 38.6145 18.44 38.5945 18.22C38.5745 18 38.4295 17.69 38.1595 17.29L34.3945 11.56ZM33.3895 17.29C33.3895 17.73 33.4345 18.05 33.5245 18.25C33.6145 18.44 33.7845 18.605 34.0345 18.745L34.2145 18.85C34.5545 19.04 34.7995 19.27 34.9495 19.54C35.1095 19.8 35.1895 20.11 35.1895 20.47C35.1895 20.94 35.0495 21.315 34.7695 21.595C34.4895 21.865 34.0545 22 33.4645 22H25.9045C25.3145 22 24.8795 21.865 24.5995 21.595C24.3195 21.315 24.1795 20.94 24.1795 20.47C24.1795 19.73 24.5095 19.185 25.1695 18.835L25.6495 18.58C25.8795 18.46 26.0645 18.315 26.2045 18.145C26.3545 17.965 26.4295 17.68 26.4295 17.29V5.71C26.4295 5.32 26.3545 5.04 26.2045 4.87C26.0645 4.69 25.8795 4.54 25.6495 4.42L25.1695 4.165C24.5095 3.815 24.1795 3.27 24.1795 2.53C24.1795 2.06 24.3195 1.69 24.5995 1.42C24.8795 1.14 25.3145 0.999999 25.9045 0.999999H33.9145C34.5045 0.999999 34.9395 1.14 35.2195 1.42C35.4995 1.69 35.6395 2.06 35.6395 2.53C35.6395 3.27 35.3095 3.815 34.6495 4.165L34.1695 4.42C33.9495 4.54 33.7645 4.69 33.6145 4.87C33.4645 5.04 33.3895 5.32 33.3895 5.71V17.29ZM71.6765 8.32C71.6765 9.16 71.4665 9.955 71.0465 10.705C70.6365 11.445 70.0565 12.075 69.3065 12.595C68.5565 13.105 67.6815 13.445 66.6815 13.615C66.0315 13.725 65.4515 13.885 64.9415 14.095C64.4415 14.295 63.9365 14.48 63.4265 14.65C62.9165 14.81 62.3215 14.89 61.6415 14.89C61.1015 14.89 60.5815 14.85 60.0815 14.77C59.5815 14.68 59.1165 14.57 58.6865 14.44C58.2665 14.3 57.9065 14.16 57.6065 14.02L57.5465 11.5C57.8765 11.7 58.1965 11.855 58.5065 11.965C58.8265 12.065 59.1565 12.135 59.4965 12.175C59.8465 12.205 60.2165 12.22 60.6065 12.22C61.8865 12.22 62.8665 11.89 63.5465 11.23C64.2265 10.56 64.5665 9.57 64.5665 8.26C64.5665 7.41 64.3715 6.655 63.9815 5.995C63.5915 5.325 63.0465 4.8 62.3465 4.42C61.6565 4.04 60.8465 3.85 59.9165 3.85H59.3465V17.29C59.3465 17.72 59.4215 18.02 59.5715 18.19C59.7215 18.36 59.9065 18.53 60.1265 18.7L60.4265 18.925C60.7065 19.135 60.8965 19.365 60.9965 19.615C61.0965 19.855 61.1465 20.14 61.1465 20.47C61.1465 21.49 60.5715 22 59.4215 22H51.8615C51.2715 22 50.8365 21.865 50.5565 21.595C50.2765 21.315 50.1365 20.94 50.1365 20.47C50.1365 19.73 50.4665 19.185 51.1265 18.835L51.6065 18.58C51.8365 18.46 52.0215 18.315 52.1615 18.145C52.3115 17.965 52.3865 17.68 52.3865 17.29V5.71C52.3865 5.32 52.3115 5.04 52.1615 4.87C52.0215 4.69 51.8365 4.54 51.6065 4.42L51.1265 4.165C50.4665 3.815 50.1365 3.27 50.1365 2.53C50.1365 2.06 50.2765 1.69 50.5565 1.42C50.8365 1.14 51.2715 0.999999 51.8615 0.999999H60.3215C62.8015 0.999999 64.8815 1.32 66.5615 1.96C68.2515 2.59 69.5265 3.455 70.3865 4.555C71.2465 5.655 71.6765 6.91 71.6765 8.32ZM61.5515 13.645L68.1815 12.85L71.0015 17.62C71.2015 17.95 71.3815 18.2 71.5415 18.37C71.7015 18.53 71.9565 18.7 72.3065 18.88C72.5965 19.04 72.8165 19.25 72.9665 19.51C73.1265 19.77 73.2065 20.09 73.2065 20.47C73.2065 20.94 73.0665 21.315 72.7865 21.595C72.5065 21.865 72.0715 22 71.4815 22H64.8965C63.7965 22 63.2465 21.49 63.2465 20.47C63.2465 20.25 63.2915 20.055 63.3815 19.885C63.4715 19.705 63.5965 19.525 63.7565 19.345L63.8765 19.21C63.9565 19.12 64.0065 19 64.0265 18.85C64.0565 18.69 64.0215 18.515 63.9215 18.325L61.5515 13.645Z" fill="#FF6000"/>
</svg>
