<svg width="74" height="23" viewBox="0 0 74 23" fill="none" xmlns="http://www.w3.org/2000/svg">
<path d="M20.4418 20.98C20.4418 21.53 20.3118 21.935 20.0518 22.195C19.8018 22.465 19.4118 22.6 18.8818 22.6C18.5618 22.6 18.2818 22.525 18.0418 22.375C17.8018 22.225 17.5818 22.055 17.3818 21.865C17.1918 21.675 17.0018 21.505 16.8118 21.355C16.6218 21.205 16.4118 21.13 16.1818 21.13C15.9418 21.13 15.6618 21.205 15.3418 21.355C15.0218 21.495 14.6468 21.665 14.2168 21.865C13.7868 22.055 13.2868 22.22 12.7168 22.36C12.1468 22.51 11.4918 22.585 10.7518 22.585C9.10184 22.585 7.62684 22.325 6.32684 21.805C5.03684 21.285 3.94184 20.54 3.04184 19.57C2.14184 18.6 1.45684 17.435 0.986836 16.075C0.516836 14.715 0.281836 13.19 0.281836 11.5C0.281836 9.93 0.561836 8.475 1.12184 7.135C1.69184 5.785 2.48184 4.605 3.49184 3.595C4.50184 2.585 5.67684 1.8 7.01684 1.24C8.35684 0.679999 9.80184 0.399999 11.3518 0.399999C12.3718 0.399999 13.2018 0.474999 13.8418 0.624999C14.4818 0.774999 15.0068 0.924999 15.4168 1.075C15.8268 1.225 16.1918 1.3 16.5118 1.3C16.7918 1.3 17.0318 1.23 17.2318 1.09C17.4418 0.949999 17.6418 0.809999 17.8318 0.669999C18.0318 0.529999 18.2518 0.459998 18.4918 0.459998C18.9118 0.459998 19.2018 0.574998 19.3618 0.804998C19.5318 1.035 19.6918 1.415 19.8418 1.945L21.2218 6.715C21.3518 7.165 21.2868 7.545 21.0268 7.855C20.7768 8.165 20.4218 8.36 19.9618 8.44C19.5818 8.5 19.2218 8.455 18.8818 8.305C18.5518 8.155 18.2668 7.84 18.0268 7.36C17.5068 6.31 16.9368 5.49 16.3168 4.9C15.6968 4.31 15.0518 3.9 14.3818 3.67C13.7118 3.43 13.0318 3.31 12.3418 3.31C11.3018 3.31 10.4018 3.6 9.64184 4.18C8.88184 4.76 8.29184 5.595 7.87184 6.685C7.46184 7.775 7.25684 9.09 7.25684 10.63C7.25684 12.38 7.51684 13.875 8.03684 15.115C8.55684 16.345 9.24184 17.29 10.0918 17.95C10.9418 18.61 11.8618 18.94 12.8518 18.94C13.1218 18.94 13.3468 18.915 13.5268 18.865C13.7168 18.815 13.8668 18.745 13.9768 18.655C14.0868 18.555 14.1668 18.43 14.2168 18.28C14.2668 18.13 14.2918 17.96 14.2918 17.77V15.385C14.2918 15.095 14.2268 14.89 14.0968 14.77C13.9668 14.65 13.7718 14.53 13.5118 14.41L13.0318 14.185C12.6518 14.005 12.3418 13.805 12.1018 13.585C11.8618 13.355 11.7418 13.045 11.7418 12.655C11.7418 12.205 11.8818 11.85 12.1618 11.59C12.4418 11.33 12.8768 11.2 13.4668 11.2H20.7418C21.3418 11.2 21.7768 11.33 22.0468 11.59C22.3268 11.85 22.4668 12.2 22.4668 12.64C22.4668 13 22.3818 13.295 22.2118 13.525C22.0518 13.755 21.8118 13.95 21.4918 14.11L21.2218 14.245C21.0118 14.345 20.8268 14.475 20.6668 14.635C20.5168 14.785 20.4418 15.035 20.4418 15.385V20.98ZM31.2395 13.345L39.1595 5.995C39.4995 5.675 39.7195 5.42 39.8195 5.23C39.9295 5.04 39.9445 4.88 39.8645 4.75C39.7945 4.62 39.6495 4.5 39.4295 4.39L38.9495 4.135C38.6095 3.955 38.3595 3.74 38.1995 3.49C38.0395 3.23 37.9595 2.91 37.9595 2.53C37.9595 2.06 38.0995 1.69 38.3795 1.42C38.6595 1.14 39.0945 0.999999 39.6845 0.999999H45.9845C46.5745 0.999999 47.0095 1.14 47.2895 1.42C47.5695 1.69 47.7095 2.06 47.7095 2.53C47.7095 2.93 47.5695 3.265 47.2895 3.535C47.0095 3.795 46.6045 4.05 46.0745 4.3C45.9045 4.38 45.7395 4.47 45.5795 4.57C45.4295 4.67 45.2645 4.795 45.0845 4.945C44.9145 5.085 44.7045 5.265 44.4545 5.485C44.2045 5.695 43.8945 5.965 43.5245 6.295L32.4695 16.135L31.2395 13.345ZM34.6445 11.56L39.7595 7.39L46.6745 17.635C46.9045 17.985 47.1145 18.225 47.3045 18.355C47.5045 18.475 47.6845 18.58 47.8445 18.67C48.2045 18.88 48.4595 19.14 48.6095 19.45C48.7595 19.76 48.8345 20.1 48.8345 20.47C48.8345 20.94 48.6945 21.315 48.4145 21.595C48.1345 21.865 47.6995 22 47.1095 22H39.2045C38.6145 22 38.1795 21.865 37.8995 21.595C37.6195 21.315 37.4795 20.94 37.4795 20.47C37.4795 20.08 37.5545 19.765 37.7045 19.525C37.8645 19.285 38.0645 19.085 38.3045 18.925L38.5745 18.745C38.7745 18.615 38.8645 18.44 38.8445 18.22C38.8245 18 38.6795 17.69 38.4095 17.29L34.6445 11.56ZM33.6395 17.29C33.6395 17.73 33.6845 18.05 33.7745 18.25C33.8645 18.44 34.0345 18.605 34.2845 18.745L34.4645 18.85C34.8045 19.04 35.0495 19.27 35.1995 19.54C35.3595 19.8 35.4395 20.11 35.4395 20.47C35.4395 20.94 35.2995 21.315 35.0195 21.595C34.7395 21.865 34.3045 22 33.7145 22H26.1545C25.5645 22 25.1295 21.865 24.8495 21.595C24.5695 21.315 24.4295 20.94 24.4295 20.47C24.4295 19.73 24.7595 19.185 25.4195 18.835L25.8995 18.58C26.1295 18.46 26.3145 18.315 26.4545 18.145C26.6045 17.965 26.6795 17.68 26.6795 17.29V5.71C26.6795 5.32 26.6045 5.04 26.4545 4.87C26.3145 4.69 26.1295 4.54 25.8995 4.42L25.4195 4.165C24.7595 3.815 24.4295 3.27 24.4295 2.53C24.4295 2.06 24.5695 1.69 24.8495 1.42C25.1295 1.14 25.5645 0.999999 26.1545 0.999999H34.1645C34.7545 0.999999 35.1895 1.14 35.4695 1.42C35.7495 1.69 35.8895 2.06 35.8895 2.53C35.8895 3.27 35.5595 3.815 34.8995 4.165L34.4195 4.42C34.1995 4.54 34.0145 4.69 33.8645 4.87C33.7145 5.04 33.6395 5.32 33.6395 5.71V17.29ZM71.9265 8.32C71.9265 9.16 71.7165 9.955 71.2965 10.705C70.8865 11.445 70.3065 12.075 69.5565 12.595C68.8065 13.105 67.9315 13.445 66.9315 13.615C66.2815 13.725 65.7015 13.885 65.1915 14.095C64.6915 14.295 64.1865 14.48 63.6765 14.65C63.1665 14.81 62.5715 14.89 61.8915 14.89C61.3515 14.89 60.8315 14.85 60.3315 14.77C59.8315 14.68 59.3665 14.57 58.9365 14.44C58.5165 14.3 58.1565 14.16 57.8565 14.02L57.7965 11.5C58.1265 11.7 58.4465 11.855 58.7565 11.965C59.0765 12.065 59.4065 12.135 59.7465 12.175C60.0965 12.205 60.4665 12.22 60.8565 12.22C62.1365 12.22 63.1165 11.89 63.7965 11.23C64.4765 10.56 64.8165 9.57 64.8165 8.26C64.8165 7.41 64.6215 6.655 64.2315 5.995C63.8415 5.325 63.2965 4.8 62.5965 4.42C61.9065 4.04 61.0965 3.85 60.1665 3.85H59.5965V17.29C59.5965 17.72 59.6715 18.02 59.8215 18.19C59.9715 18.36 60.1565 18.53 60.3765 18.7L60.6765 18.925C60.9565 19.135 61.1465 19.365 61.2465 19.615C61.3465 19.855 61.3965 20.14 61.3965 20.47C61.3965 21.49 60.8215 22 59.6715 22H52.1115C51.5215 22 51.0865 21.865 50.8065 21.595C50.5265 21.315 50.3865 20.94 50.3865 20.47C50.3865 19.73 50.7165 19.185 51.3765 18.835L51.8565 18.58C52.0865 18.46 52.2715 18.315 52.4115 18.145C52.5615 17.965 52.6365 17.68 52.6365 17.29V5.71C52.6365 5.32 52.5615 5.04 52.4115 4.87C52.2715 4.69 52.0865 4.54 51.8565 4.42L51.3765 4.165C50.7165 3.815 50.3865 3.27 50.3865 2.53C50.3865 2.06 50.5265 1.69 50.8065 1.42C51.0865 1.14 51.5215 0.999999 52.1115 0.999999H60.5715C63.0515 0.999999 65.1315 1.32 66.8115 1.96C68.5015 2.59 69.7765 3.455 70.6365 4.555C71.4965 5.655 71.9265 6.91 71.9265 8.32ZM61.8015 13.645L68.4315 12.85L71.2515 17.62C71.4515 17.95 71.6315 18.2 71.7915 18.37C71.9515 18.53 72.2065 18.7 72.5565 18.88C72.8465 19.04 73.0665 19.25 73.2165 19.51C73.3765 19.77 73.4565 20.09 73.4565 20.47C73.4565 20.94 73.3165 21.315 73.0365 21.595C72.7565 21.865 72.3215 22 71.7315 22H65.1465C64.0465 22 63.4965 21.49 63.4965 20.47C63.4965 20.25 63.5415 20.055 63.6315 19.885C63.7215 19.705 63.8465 19.525 64.0065 19.345L64.1265 19.21C64.2065 19.12 64.2565 19 64.2765 18.85C64.3065 18.69 64.2715 18.515 64.1715 18.325L61.8015 13.645Z" fill="#865DFF"/>
</svg>
